<?xml version="1.0" encoding="UTF-8"?>
<svg id="Calque_1" xmlns="http://www.w3.org/2000/svg" version="1.1" viewBox="0 0 862.5 787.5">
  <!-- Generator: Adobe Illustrator 29.3.1, SVG Export Plug-In . SVG Version: 2.1.0 Build 151)  -->
  <defs>
    <style>
      .st0 {
        fill: #f0f;
      }

      .st1 {
        fill: lime;
      }

      .st2 {
        fill: blue;
      }

      .st3 {
        fill: aqua;
      }
    </style>
  </defs>
  <path class="st0" d="M326.6,264.5s-3.1,31.4,4.8,43.6c0-.2,4.8,15.4,27.3,16.5l67.2,12,37.2,115.5-86.3,18.4s-53.4-109.3-64.5-117c-1.9-.7,8.6-85.8,14.4-89.1h0Z"/>
  <path class="st3" d="M597.1,605.3s12.2,26.5,2.5,32.1c0,0-27.1,11.5-66.1-32.8l-28.9-37.7s-11.5-7.7-18.7-2.8c0,0-13.8,4.7-19.6-7l-9.6-16s-1.9-9.8,5.3-12.5c0,0,28.5-8.7,31.5-6.8l-4.5-7.9s-19.1-40.4-20.6-47.6l-5.5-14.2-86.3,18.4c17.4,50.6,59.1,97.2,115.1,141.5,0,0,48.6,42.7,90.6,54.2,0,0,34.1,8.3,30.4-19.4,0,0,.3-3.3-15.8-41.6h.2Z"/>
  <path class="st2" d="M312.2,353.6s3.6-62.8,14.4-89.1c0,0-2.7-32.4,14.5-58.5,0,0-36.8,37.3-53.1,42.8,0,0-20.6,14.3-6.4,46.3,0,0,21.1,44.8,30.6,58.5Z"/>
  <path class="st1" d="M467.6,292.4s38.6.7,41.7-1.2c0,0,8.7,31.8,7,47.3,0,0-16.2,5.5-27.3.9-6-2.5-8.1-9.9-10.8-17.8l-10.7-29.1h0Z"/>
  <path class="st1" d="M256.3,281.1s-21.4,22.3-4,55.2l42,74.2s37.8,65.6,39.5,72c0,0,35.1,81.3,66.5,112.2,0,0,108.3,105.8,160.3,107.5,0,0,10.8,3.5,23.5-4.2-.8,0,29.6-13.6,28.8-31.2,0,0,5.6-9.8,0-19.9,3.1,25.4-25.8,28.7-74.2-1.1-36.5-24.8-72.2-54.3-107.1-89-28.9-29.2-51.5-75.6-54.8-86.3-39.9-86.2-64.5-117-85.9-156.5-9.4-19.8-20.8-36-9.1-58.7,0,0-24.1,23.5-25.5,25.6h0v.2Z"/>
</svg>