<?xml version="1.0" encoding="UTF-8"?>
<svg id="Calque_1" data-name="Calque 1" xmlns="http://www.w3.org/2000/svg" viewBox="0 0 491.67 146.4">
  <defs>
    <style>
      .cls-1 {
        fill: #ffc2f0;
      }

      .cls-2 {
        fill: #0f1f11;
      }
    </style>
  </defs>
  <g>
    <path class="cls-2" d="M99.09,82.3c-7.26,0-12.45,2.31-14.52,8.33-2.6-6.02-6.75-8.33-12.97-8.33-7.26,0-11.93,3.24-12.44,8.33l-1.04-7.41h-19.71v39.58h20.75v-15.96c0-4.16,1.03-6.02,4.14-6.02,2.6,0,3.63,1.39,3.63,6.02v15.96h20.75v-15.96c0-4.16,1.03-6.02,4.15-6.02,2.59,0,3.63,1.39,3.63,6.02v15.96h20.74v-16.42c0-17.6-5.71-24.08-17.11-24.08Z"/>
    <path class="cls-2" d="M157.68,83.22v22.7c0,3.7-2.07,6.02-7.78,6.02s-7.77-2.32-7.77-6.02v-22.7h-20.75v23.62c0,6.78.96,12.1,3.3,15.96h32.93c.03-.07.05-.14.07-.21l.08.21h20.67v-39.58h-20.75Z"/>
    <path class="cls-2" d="M212.13,101.29c-7.78-.47-8.81-.93-8.81-2.32,0-1.85,1.55-1.85,8.81-1.85,6.74,0,7.78,0,7.78,1.39v.92h20.74v-4.16c0-8.34-6.22-12.97-28.52-12.97s-29.56,5.56-29.56,14.82c0,10.65,8.82,12.96,29.56,14.35,7.78.47,8.82.93,8.82,2.32,0,1.85-1.56,1.85-8.82,1.85-6.74,0-7.78,0-7.78-1.39v-.92h-20.74v4.16c0,1.99.35,3.76,1.2,5.31h54.59c1.57-2.03,2.29-4.44,2.29-7.16,0-10.65-6.22-12.96-29.56-14.35Z"/>
    <path class="cls-2" d="M302.88,110.55v-10.19c0-13.43-6.74-18.06-28.52-18.06s-28.52,6.48-28.52,18.52v11.12c0,4.37,1.03,8,3.33,10.86h51.87c1.29-2.24,1.84-5.06,1.84-8.55v-.92h-20.74v.92c0,1.67-1.56,2.32-7.78,2.32s-7.78-1.02-7.78-4.63v-1.39h36.3ZM266.58,100.82c0-3.61,1.56-4.63,7.78-4.63s7.78.93,7.78,4.17v1.39h-15.56v-.93Z"/>
    <path class="cls-2" d="M328.81,122.8v-39.58h-20.74v39.58h20.74Z"/>
    <path class="cls-2" d="M362.52,99.9c6.22,0,8.29,2.68,8.29,6.48s-2.07,6.48-8.29,6.48-8.3-2.68-8.3-6.48,2.07-6.48,8.3-6.48ZM386.24,122.8c3.67-3.87,5.32-9.03,5.32-15.03v-2.78c0-13.43-8.3-22.69-29.04-22.69s-29.04,9.26-29.04,22.69v2.78c0,6,1.65,11.16,5.32,15.03h47.44Z"/>
    <path class="cls-2" d="M453.26,122.8v-16.88c0-15.75-5.18-23.62-20.74-23.62-8.3,0-14,2.78-15.56,7.87l-2.59-6.95h-18.15v39.58h20.74v-15.96c0-3.7,2.08-6.02,7.78-6.02s7.78,2.32,7.78,6.02v15.96h20.74Z"/>
  </g>
  <g>
    <path class="cls-1" d="M157.68,46.79v22.69c0,2.08-.65,3.72-2.24,4.76h22.99v-27.45h-20.75ZM142.13,70.8v-16.41h-20.75v17.08c0,.96.04,1.89.12,2.77h22.86c-1.58-.75-2.23-1.94-2.23-3.44Z"/>
    <g>
      <path class="cls-2" d="M99.09,45.87c-7.26,0-12.45,2.31-14.52,8.33-2.6-6.02-6.75-8.33-12.97-8.33-7.26,0-11.93,3.24-12.44,8.33l-1.04-7.41h-19.71v27.45h20.75v-3.83c0-4.17,1.03-6.02,4.14-6.02,2.6,0,3.63,1.39,3.63,6.02v3.83h20.75v-3.83c0-4.17,1.03-6.02,4.15-6.02,2.59,0,3.63,1.39,3.63,6.02v3.83h20.74v-4.29c0-17.6-5.71-24.08-17.11-24.08Z"/>
      <path class="cls-2" d="M212.13,64.85c-7.78-.46-8.81-.92-8.81-2.31,0-1.85,1.55-1.85,8.81-1.85,6.74,0,7.78,0,7.78,1.39v.92h20.74v-4.17c0-8.33-6.22-12.96-28.52-12.96s-29.56,5.55-29.56,14.82,6.13,11.96,20.2,13.55h38.25c-2.12-6.48-9.74-8.25-28.89-9.39Z"/>
      <path class="cls-2" d="M274.36,45.87c-20.74,0-28.52,6.48-28.52,18.52v9.85h20.74v-.12h36.3v-10.19c0-13.43-6.74-18.06-28.52-18.06ZM282.14,65.32h-15.56v-.93c0-3.61,1.56-4.63,7.78-4.63s7.78.93,7.78,4.17v1.39Z"/>
      <path class="cls-2" d="M308.07,46.79v27.45h20.74v-27.45h-20.74Z"/>
      <path class="cls-2" d="M362.52,45.87c-20.75,0-29.04,9.26-29.04,22.69v2.78c0,.99.05,1.96.14,2.9h22.04c-1.02-1.11-1.44-2.59-1.44-4.29,0-3.8,2.07-6.49,8.3-6.49s8.29,2.69,8.29,6.49c0,1.7-.42,3.18-1.44,4.29h22.05c.09-.94.14-1.91.14-2.9v-2.78c0-13.43-8.3-22.69-29.04-22.69Z"/>
      <path class="cls-2" d="M432.52,45.87c-8.3,0-14,2.77-15.56,7.87l-2.59-6.95h-18.15v27.45h20.74v-3.83c0-3.7,2.08-6.02,7.78-6.02s7.78,2.32,7.78,6.02v3.83h20.74v-4.76c0-15.74-5.18-23.61-20.74-23.61Z"/>
    </g>
  </g>
  <g>
    <path class="cls-2" d="M99.09,26.33c-7.26,0-12.45,2.32-14.52,8.34-2.6-6.02-6.75-8.34-12.97-8.34-7.26,0-11.93,3.24-12.44,8.34l-1.04-7.41h-19.71v9.7h76.1c-2.46-7.58-7.61-10.63-15.42-10.63Z"/>
    <path class="cls-2" d="M157.68,27.26v9.7l10.57-3.66,10.18,3.66v-9.7l-10.49-3.66-10.26,3.66ZM121.38,27.26v9.7h20.75v-9.7h-20.75Z"/>
    <path class="cls-2" d="M212.13,26.33c-17.82,0-26.54,3.91-28.88,10.63h57.21c-1.18-6.86-8.21-10.63-28.33-10.63Z"/>
    <path class="cls-2" d="M274.36,26.33c-15.61,0-23.87,3.67-27.01,10.63h54.52c-2.55-7.76-10.37-10.63-27.51-10.63Z"/>
    <path class="cls-2" d="M308.07,27.26v9.7h20.74v-9.7h-20.74Z"/>
    <path class="cls-2" d="M362.52,26.33c-13.69,0-21.95,4.03-25.99,10.63h51.98c-4.04-6.6-12.31-10.63-25.99-10.63Z"/>
    <path class="cls-2" d="M396.22,36.96v-9.7h18.15l2.59,6.95c1.56-5.1,7.26-7.88,15.56-7.88,10.44,0,16.2,3.55,18.87,10.63h-55.17Z"/>
  </g>
</svg>